<?xml version="1.0" encoding="UTF-8" ?>
<!DOCTYPE svg PUBLIC "-//W3C//DTD SVG 1.1//EN" "http://www.w3.org/Graphics/SVG/1.1/DTD/svg11.dtd">
<svg width="512pt" height="512pt" viewBox="0 0 512 512" version="1.1" xmlns="http://www.w3.org/2000/svg">
<g id="#000000ff">
<path fill="#000000" opacity="1.00" d=" M 251.44 0.00 L 262.48 0.00 C 304.19 1.19 345.69 12.34 381.94 33.12 C 432.94 61.83 473.50 108.59 494.63 163.18 C 505.31 190.38 510.92 219.43 512.00 248.59 L 512.00 259.61 C 511.37 297.82 502.24 335.90 485.13 370.10 C 470.01 400.50 448.76 427.83 423.03 449.98 C 392.98 475.92 356.79 494.64 318.30 504.29 C 300.88 508.74 282.99 510.96 265.07 512.00 L 250.51 512.00 C 205.32 510.88 160.45 497.82 121.96 474.07 C 71.49 443.22 32.40 394.29 13.57 338.21 C 5.25 313.83 0.87 288.20 0.00 262.48 L 0.00 250.37 C 0.86 217.34 7.94 184.46 21.16 154.16 C 41.00 108.07 74.85 68.18 117.04 41.04 C 156.85 15.15 203.99 0.90 251.44 0.00 M 235.76 118.80 C 223.56 132.80 218.63 151.72 218.24 169.96 C 218.11 185.39 218.23 200.82 218.18 216.26 C 206.43 216.30 194.68 216.21 182.94 216.30 C 178.41 216.24 174.56 220.51 174.86 224.99 C 174.88 239.66 174.94 254.33 175.02 269.01 C 174.73 273.43 178.47 277.65 182.94 277.69 C 194.68 277.80 206.43 277.69 218.18 277.74 C 218.21 321.84 218.14 365.94 218.21 410.04 C 218.02 413.16 220.78 416.04 223.92 415.96 C 239.66 416.03 255.41 416.03 271.15 415.95 C 274.75 416.03 277.43 412.43 276.98 408.99 C 277.05 365.24 277.12 321.49 277.21 277.74 C 292.84 277.69 308.47 277.80 324.10 277.69 C 328.19 277.64 331.74 274.06 331.96 270.01 C 333.69 255.37 335.38 240.71 337.04 226.06 C 337.97 221.28 334.01 216.29 329.12 216.30 C 311.72 216.21 294.32 216.30 276.92 216.26 C 276.90 205.18 276.93 194.10 276.91 183.02 C 276.97 175.25 276.69 166.82 281.05 160.02 C 285.12 153.65 292.98 151.26 300.14 150.77 C 309.38 150.22 318.64 150.77 327.89 150.45 C 332.10 150.13 335.51 146.12 335.31 141.92 C 335.36 129.61 335.33 117.30 335.32 104.99 C 335.56 101.28 333.18 97.57 329.61 96.45 C 326.14 95.59 322.52 96.14 318.98 96.00 C 306.30 96.22 293.57 95.48 280.91 96.55 C 263.88 98.25 246.98 105.60 235.76 118.80 Z" />
</g>
</svg>
