<?xml version="1.0" encoding="UTF-8" ?>
<!DOCTYPE svg PUBLIC "-//W3C//DTD SVG 1.1//EN" "http://www.w3.org/Graphics/SVG/1.1/DTD/svg11.dtd">
<svg width="512pt" height="512pt" viewBox="0 0 512 512" version="1.1" xmlns="http://www.w3.org/2000/svg">
<g id="#000000ff">
<path fill="#000000" opacity="1.00" d=" M 248.48 0.00 L 262.61 0.00 C 295.58 1.00 328.42 8.06 358.63 21.40 C 411.11 44.29 455.31 85.39 482.15 135.95 C 500.62 170.52 510.67 209.37 512.00 248.50 L 512.00 263.44 C 510.58 304.56 499.63 345.46 479.23 381.27 C 462.60 410.95 439.94 437.22 413.08 458.09 C 383.19 481.43 348.05 498.04 310.97 506.06 C 295.10 509.68 278.84 511.32 262.60 512.00 L 249.46 512.00 C 207.75 510.82 166.34 499.52 130.04 478.89 C 90.02 456.17 56.20 422.61 33.50 382.56 C 12.63 346.46 1.41 305.08 0.00 263.47 L 0.00 248.56 C 1.13 216.84 7.74 185.26 20.25 156.05 C 43.09 101.95 85.24 56.35 137.28 29.16 C 171.48 11.07 209.86 1.34 248.48 0.00 M 215.27 126.36 C 205.53 126.78 195.72 126.82 186.12 128.73 C 173.56 131.06 161.27 136.00 151.48 144.34 C 140.62 153.41 133.55 166.37 130.10 179.97 C 126.94 191.72 126.81 203.96 126.34 216.04 C 125.44 243.66 125.46 271.31 126.45 298.93 C 126.85 309.50 127.15 320.17 129.72 330.48 C 133.09 344.84 140.41 358.61 151.95 368.04 C 165.60 379.42 183.55 384.09 201.00 385.04 C 237.32 386.71 273.71 386.74 310.02 385.08 C 326.88 384.27 344.20 380.13 357.85 369.78 C 370.13 360.67 378.18 346.77 381.87 332.08 C 385.31 319.34 385.25 306.07 385.74 292.98 C 386.49 268.32 386.49 243.65 385.74 218.99 C 385.26 206.27 385.32 193.38 382.13 180.97 C 378.72 166.80 371.38 153.28 360.01 143.95 C 346.37 132.59 328.42 127.87 310.98 126.98 C 279.11 125.41 247.17 125.34 215.27 126.36 Z" />
<path fill="#000000" opacity="1.00" d=" M 225.28 149.49 C 249.18 148.96 273.09 149.00 296.98 149.80 C 309.34 150.24 322.10 150.40 333.68 155.27 C 341.99 158.56 349.23 164.55 353.73 172.29 C 359.36 181.81 361.22 193.01 361.74 203.91 C 363.30 238.61 363.30 273.37 361.74 308.07 C 361.12 321.95 358.07 336.80 348.11 347.15 C 338.30 357.36 323.70 360.86 310.02 361.63 C 274.02 363.34 237.94 363.34 201.95 361.63 C 188.49 360.86 174.21 357.49 164.40 347.65 C 154.54 337.84 151.13 323.53 150.38 310.06 C 148.87 279.41 148.84 248.70 149.70 218.03 C 150.20 206.99 149.99 195.76 152.97 185.03 C 155.08 177.14 158.90 169.55 164.87 163.88 C 172.47 156.49 182.89 152.81 193.20 151.27 C 203.82 149.81 214.58 149.92 225.28 149.49 M 321.44 171.56 C 314.98 173.23 309.94 179.34 309.78 186.05 C 309.24 194.45 316.64 202.26 325.05 202.24 C 334.07 202.65 342.09 193.91 340.84 184.94 C 340.05 175.87 330.24 168.98 321.44 171.56 M 248.49 189.71 C 231.71 191.51 215.84 200.09 204.99 213.01 C 195.13 224.63 189.46 239.74 189.31 254.99 C 189.03 269.47 193.68 283.98 202.32 295.59 C 212.44 309.36 228.01 319.01 244.89 321.77 C 259.66 324.29 275.27 321.66 288.36 314.33 C 302.57 306.50 313.70 293.26 319.00 277.93 C 324.29 262.84 323.89 245.85 317.87 231.04 C 312.50 217.67 302.66 206.16 290.29 198.77 C 277.86 191.25 262.92 188.07 248.49 189.71 Z" />
<path fill="#000000" opacity="1.00" d=" M 247.36 213.58 C 259.48 211.10 272.60 214.06 282.37 221.68 C 292.38 229.29 298.75 241.46 299.23 254.03 C 299.91 266.98 294.31 280.05 284.52 288.54 C 275.49 296.56 262.97 300.43 250.98 298.97 C 237.79 297.54 225.55 289.56 218.81 278.14 C 212.60 267.84 211.07 254.91 214.58 243.41 C 218.98 228.47 232.07 216.56 247.36 213.58 Z" />
</g>
</svg>
