<?xml version="1.0" encoding="UTF-8" ?>
<!DOCTYPE svg PUBLIC "-//W3C//DTD SVG 1.1//EN" "http://www.w3.org/Graphics/SVG/1.1/DTD/svg11.dtd">
<svg width="184pt" height="132pt" viewBox="0 0 184 132" version="1.1" xmlns="http://www.w3.org/2000/svg">
<g id="#151515ff">
<path fill="#151515" opacity="1.00" d=" M 121.36 2.35 C 122.38 1.20 123.78 0.59 125.34 0.64 C 126.35 2.96 124.31 4.45 122.92 5.92 C 116.68 12.01 110.56 18.21 104.33 24.30 C 102.21 26.39 99.99 28.80 99.81 31.94 C 99.86 34.01 100.50 36.01 100.97 38.02 C 96.65 42.04 92.15 45.84 87.80 49.82 C 86.35 51.01 84.99 52.51 83.10 52.98 C 80.31 50.70 78.12 47.80 75.76 45.11 C 69.63 47.56 62.17 47.54 56.86 43.22 C 50.70 37.99 45.85 30.90 44.01 22.97 C 42.75 17.78 43.73 11.54 48.09 8.04 C 52.95 4.25 59.79 4.81 65.28 6.81 C 71.77 9.34 77.72 13.53 82.08 18.99 C 86.08 24.19 86.17 31.36 83.58 37.21 C 85.74 39.12 87.91 41.03 90.04 42.98 C 92.29 41.00 94.56 39.05 96.80 37.06 C 96.44 34.08 95.90 30.91 97.12 28.05 C 98.14 25.34 100.28 23.31 102.28 21.31 C 108.69 15.04 115.00 8.67 121.36 2.35 M 47.68 14.68 C 45.88 21.03 48.76 27.56 52.25 32.77 C 55.40 37.24 59.26 42.03 64.96 43.06 C 69.03 44.25 72.75 41.73 76.65 41.11 C 79.30 43.33 81.35 46.15 83.66 48.71 C 84.91 47.58 86.16 46.46 87.40 45.34 C 84.68 42.92 81.92 40.55 79.22 38.10 C 81.96 32.87 83.05 25.97 79.13 21.02 C 74.03 14.99 66.97 10.16 59.06 8.90 C 54.57 8.04 49.16 10.05 47.68 14.68 Z" />
<path fill="#151515" opacity="1.00" d=" M 110.02 24.02 C 116.40 17.62 122.68 11.08 129.36 4.99 C 129.94 5.90 130.48 6.83 130.97 7.79 C 128.00 11.49 124.33 14.54 121.06 17.96 C 117.67 21.19 114.64 24.83 110.90 27.68 C 109.47 27.03 108.34 25.09 110.02 24.02 Z" />
<path fill="#151515" opacity="1.00" d=" M 122.93 20.91 C 126.64 17.39 129.97 13.45 133.99 10.26 C 134.83 10.94 135.65 11.65 136.45 12.38 C 129.55 19.26 122.83 26.35 115.61 32.89 C 115.00 31.98 114.51 31.01 114.14 29.99 C 116.70 26.63 120.03 23.96 122.93 20.91 Z" />
<path fill="#151515" opacity="1.00" d=" M 115.38 39.36 C 123.51 31.58 131.33 23.46 139.38 15.58 C 139.84 16.62 142.66 17.64 140.94 18.82 C 133.66 26.55 125.92 33.86 118.45 41.41 C 115.00 45.19 109.56 45.98 104.76 44.87 C 102.88 46.92 101.01 48.98 99.12 51.03 C 108.23 58.88 117.13 66.97 126.21 74.85 C 128.68 76.99 131.37 79.53 131.47 83.04 C 131.96 88.24 127.23 93.14 121.99 92.70 C 118.62 92.80 115.99 90.41 113.94 88.02 C 106.01 79.04 97.97 70.15 90.06 61.16 C 82.35 70.04 74.41 78.72 66.65 87.55 C 64.29 90.43 61.09 93.28 57.06 92.68 C 50.87 92.54 46.65 85.02 49.63 79.64 C 51.77 76.18 55.26 73.89 58.18 71.14 C 63.11 67.04 67.59 62.41 72.70 58.53 C 74.05 57.31 75.20 59.07 76.32 59.70 C 70.75 65.04 64.82 69.99 59.07 75.12 C 56.85 77.19 54.18 78.94 52.66 81.63 C 51.04 85.15 54.25 89.37 57.98 89.23 C 60.14 89.22 61.72 87.56 63.11 86.11 C 76.69 71.00 90.03 55.67 103.76 40.70 C 107.58 41.95 112.28 42.50 115.38 39.36 M 92.50 58.53 C 100.29 67.39 108.24 76.12 116.01 85.00 C 117.49 86.56 118.90 88.41 121.04 89.07 C 124.22 89.93 127.86 87.27 127.88 83.94 C 128.18 81.27 125.93 79.46 124.19 77.85 C 115.05 69.82 105.95 61.74 96.82 53.70 C 95.38 55.31 93.94 56.92 92.50 58.53 Z" />
<path fill="#151515" opacity="1.00" d=" M 6.56 100.57 C 8.85 97.92 12.61 97.95 15.73 97.00 C 16.47 99.69 18.10 103.89 14.92 105.54 C 13.75 104.58 12.72 103.48 11.65 102.42 C 7.57 104.90 4.90 109.35 4.39 114.07 C 4.07 116.39 5.57 118.86 7.97 119.23 C 10.47 118.45 12.48 116.69 14.65 115.30 C 15.14 116.48 16.05 117.57 15.99 118.91 C 13.98 122.11 9.98 124.68 6.11 123.65 C 2.60 122.44 0.72 118.53 0.68 115.01 C 0.74 109.68 3.06 104.52 6.56 100.57 Z" />
<path fill="#151515" opacity="1.00" d=" M 126.80 98.40 C 128.01 98.37 129.45 97.79 130.38 98.94 C 130.92 105.70 130.19 112.49 130.10 119.26 C 133.34 118.68 136.55 117.95 139.76 117.18 C 140.09 118.80 140.39 120.43 140.60 122.08 C 136.47 123.02 132.23 124.31 127.97 123.70 C 125.99 122.99 126.22 120.62 126.28 118.94 C 126.66 112.10 126.76 105.25 126.80 98.40 Z" />
<path fill="#151515" opacity="1.00" d=" M 34.09 105.23 C 36.09 104.70 36.37 106.84 37.05 108.16 C 38.91 106.13 41.38 105.75 43.76 107.14 C 46.07 106.27 49.70 105.08 50.74 108.31 C 51.95 112.78 52.21 117.50 52.54 122.11 C 53.03 124.10 50.94 124.55 49.66 125.32 C 48.42 120.49 48.40 115.46 47.49 110.57 C 46.32 111.33 45.16 112.10 44.00 112.88 C 44.16 116.77 45.14 120.71 44.54 124.59 C 43.54 126.04 42.52 126.07 41.49 124.71 C 40.45 120.08 40.67 115.29 40.31 110.59 C 39.10 111.94 37.92 113.31 36.76 114.71 C 36.46 117.62 37.59 121.23 35.88 123.74 C 35.41 123.81 34.47 123.95 34.00 124.02 C 32.41 121.31 32.99 118.01 32.82 115.01 C 32.92 111.74 32.29 108.17 34.09 105.23 Z" />
<path fill="#151515" opacity="1.00" d=" M 54.91 112.00 C 54.58 109.37 55.24 106.80 56.33 104.43 C 57.15 105.15 57.96 105.87 58.78 106.59 C 61.23 106.43 64.40 105.48 66.06 107.95 C 68.41 111.61 68.46 116.75 66.68 120.66 C 65.32 123.68 61.71 123.79 58.91 124.27 C 58.83 126.84 58.75 129.42 58.62 132.00 L 55.60 132.00 C 54.82 125.36 55.52 118.65 54.91 112.00 M 58.71 112.44 C 58.76 114.56 58.81 116.68 58.84 118.80 C 60.46 118.70 62.81 119.55 63.69 117.66 C 64.57 115.74 64.50 113.27 63.46 111.42 C 61.88 110.04 60.24 111.89 58.71 112.44 Z" />
<path fill="#151515" opacity="1.00" d=" M 22.41 106.60 C 24.80 105.47 28.00 106.13 29.27 108.58 C 31.74 113.09 31.32 119.74 27.06 123.05 C 24.19 125.06 20.03 123.40 18.73 120.31 C 16.53 115.73 17.63 109.06 22.41 106.60 M 21.42 115.00 C 20.88 117.10 22.82 118.41 23.94 119.85 C 25.04 118.65 26.92 117.83 27.21 116.07 C 27.79 113.82 26.27 111.90 25.16 110.12 C 23.62 111.45 21.29 112.60 21.42 115.00 Z" />
<path fill="#151515" opacity="1.00" d=" M 70.99 122.01 C 67.27 116.96 69.23 107.79 75.83 106.25 C 78.31 105.47 80.46 107.16 82.40 108.42 C 80.56 113.76 83.07 119.04 82.60 124.40 C 81.52 123.87 80.45 123.34 79.37 122.81 C 76.67 123.85 73.05 124.71 70.99 122.01 M 72.97 116.96 C 73.39 119.69 76.50 118.76 78.39 118.53 C 78.24 115.82 78.13 113.12 78.03 110.42 C 75.27 111.29 71.73 113.54 72.97 116.96 Z" />
<path fill="#151515" opacity="1.00" d=" M 85.48 106.53 C 86.91 105.29 88.07 106.96 89.23 107.70 C 91.46 106.01 95.34 105.11 96.54 108.48 C 97.61 113.14 97.51 118.05 97.59 122.82 C 96.89 123.28 95.49 124.20 94.79 124.67 C 93.23 120.06 93.42 115.17 93.40 110.39 C 88.50 112.83 89.13 118.75 88.30 123.30 C 86.88 124.37 85.26 124.13 84.99 122.17 C 84.33 116.99 84.97 111.70 85.48 106.53 Z" />
<path fill="#151515" opacity="1.00" d=" M 98.66 108.09 C 99.30 107.06 100.00 106.07 100.76 105.12 C 102.95 108.51 104.69 112.15 106.31 115.84 C 107.78 112.19 109.31 108.55 111.26 105.13 C 112.24 106.53 114.29 107.86 113.04 109.76 C 110.23 117.19 106.94 124.45 104.43 132.00 L 101.76 132.00 C 101.28 128.11 102.95 124.48 104.30 120.94 C 102.50 116.63 99.96 112.60 98.66 108.09 Z" />
<path fill="#151515" opacity="1.00" d=" M 146.34 106.51 C 148.81 105.40 151.91 106.34 153.16 108.80 C 155.28 112.86 154.98 118.44 151.99 122.01 C 149.86 124.83 145.24 124.36 143.30 121.57 C 140.00 117.03 140.96 109.05 146.34 106.51 M 147.99 119.86 C 151.65 117.76 152.07 112.03 147.98 110.15 C 144.90 112.67 143.94 117.74 147.99 119.86 Z" />
<path fill="#151515" opacity="1.00" d=" M 157.88 122.21 C 153.52 117.27 155.97 107.04 163.06 106.15 C 165.88 105.60 170.23 107.51 169.54 110.89 C 169.04 116.08 168.88 121.32 168.12 126.48 C 167.76 129.36 165.28 131.16 162.71 132.00 L 159.24 132.00 C 156.44 131.54 155.73 128.99 155.22 126.57 C 157.78 126.64 160.34 127.00 162.90 126.86 C 164.11 125.79 165.04 124.46 166.07 123.22 C 163.36 123.43 159.96 124.69 157.88 122.21 M 159.72 113.93 C 158.65 116.31 160.26 118.33 161.90 119.87 C 165.01 117.84 165.93 114.31 165.97 110.80 C 163.63 111.10 160.48 111.13 159.72 113.93 Z" />
<path fill="#151515" opacity="1.00" d=" M 175.45 106.60 C 178.10 105.29 181.58 106.41 182.69 109.22 C 184.73 113.82 184.20 120.47 179.61 123.36 C 176.44 125.04 172.57 122.88 171.50 119.67 C 169.83 115.19 170.89 108.95 175.45 106.60 M 174.46 114.99 C 173.94 117.08 175.85 118.40 176.95 119.85 C 178.06 118.63 180.04 117.82 180.27 116.01 C 180.83 113.77 179.30 111.86 178.16 110.11 C 176.64 111.46 174.36 112.62 174.46 114.99 Z" />
</g>
</svg>
