<?xml version="1.0" encoding="UTF-8" ?>
<!DOCTYPE svg PUBLIC "-//W3C//DTD SVG 1.1//EN" "http://www.w3.org/Graphics/SVG/1.1/DTD/svg11.dtd">
<svg width="512pt" height="512pt" viewBox="0 0 512 512" version="1.1" xmlns="http://www.w3.org/2000/svg">
<g id="#000000ff">
<path fill="#000000" opacity="1.00" d=" M 228.17 60.18 C 245.10 59.93 262.04 60.14 278.98 60.07 C 301.15 59.98 323.22 67.80 340.42 81.79 C 362.93 99.79 376.81 128.07 376.96 156.92 C 377.02 222.29 376.97 287.65 376.98 353.02 C 377.43 383.57 362.49 413.77 338.03 432.05 C 321.25 444.89 300.19 451.96 279.07 451.93 C 263.38 451.93 247.70 451.94 232.01 451.93 C 209.50 451.79 187.19 443.42 170.02 428.89 C 151.78 413.64 139.38 391.57 136.05 368.01 C 134.71 359.41 135.06 350.69 135.02 342.02 C 135.02 285.67 135.02 229.33 135.02 172.98 C 135.11 162.80 134.54 152.55 136.28 142.47 C 139.60 121.57 149.99 101.89 165.32 87.32 C 182.12 71.13 204.85 61.25 228.17 60.18 M 228.19 90.22 C 212.05 91.31 196.44 98.49 185.05 109.96 C 172.59 122.25 165.22 139.51 165.04 157.02 C 165.00 165.02 165.00 173.01 165.04 181.01 C 164.99 190.76 170.31 200.30 178.60 205.41 C 183.44 208.55 189.25 209.98 195.00 209.92 C 234.32 209.95 273.65 209.92 312.97 209.94 C 316.96 209.93 321.02 210.04 324.92 209.03 C 334.38 206.78 342.39 199.39 345.43 190.15 C 347.62 184.02 346.84 177.41 346.98 171.03 C 346.86 162.68 347.46 154.23 345.87 145.97 C 342.98 129.59 333.72 114.47 320.55 104.31 C 308.51 94.90 293.21 89.78 277.93 90.06 C 261.35 90.18 244.76 89.86 228.19 90.22 M 165.02 232.27 C 165.02 272.85 165.01 313.42 165.02 353.99 C 165.01 367.75 169.31 381.47 177.24 392.72 C 187.56 407.64 204.06 418.17 222.00 421.03 C 228.60 422.23 235.32 421.89 241.98 421.93 C 251.66 421.93 261.34 421.93 271.02 421.93 C 276.98 421.90 282.97 422.17 288.87 421.21 C 305.56 418.81 321.17 409.85 331.74 396.72 C 341.52 384.77 346.99 369.41 346.97 353.97 C 346.99 313.40 346.97 272.83 346.98 232.27 C 337.88 237.42 327.41 240.00 316.97 239.92 C 277.00 239.95 237.02 239.92 197.05 239.94 C 185.93 240.26 174.73 237.76 165.02 232.27 Z" />
<path fill="#000000" opacity="1.00" d=" M 252.39 120.51 C 261.01 118.03 270.54 125.02 270.92 133.94 C 271.09 144.31 270.98 154.68 270.98 165.05 C 270.96 171.45 266.42 177.54 260.22 179.25 C 251.13 182.35 240.78 174.54 241.01 165.00 C 240.98 154.96 240.98 144.92 241.01 134.88 C 240.99 128.24 245.93 122.03 252.39 120.51 Z" />
<path fill="#000000" opacity="1.00" d=" M 84.73 172.84 C 91.25 170.25 99.38 173.01 102.85 179.13 C 106.37 184.86 105.36 192.80 100.55 197.50 C 79.19 218.66 57.74 239.74 36.36 260.87 C 57.62 281.89 78.92 302.87 100.19 323.88 C 104.45 327.88 106.15 334.41 104.10 339.92 C 102.38 345.16 97.49 349.03 92.06 349.74 C 87.27 350.45 82.31 348.59 78.98 345.12 C 54.47 320.90 29.95 296.68 5.39 272.51 C 2.51 269.95 0.65 266.45 0.00 262.66 L 0.00 259.49 C 0.55 255.32 2.68 251.54 5.85 248.81 C 29.02 226.01 52.12 203.15 75.26 180.33 C 78.15 177.53 80.81 174.21 84.73 172.84 Z" />
<path fill="#000000" opacity="1.00" d=" M 408.45 180.45 C 411.28 173.99 419.15 170.45 425.89 172.39 C 430.67 173.50 433.82 177.52 437.19 180.76 C 460.37 203.62 483.54 226.50 506.73 249.36 C 509.60 251.93 511.36 255.47 512.00 259.26 L 512.00 262.22 C 511.47 265.94 509.86 269.48 507.08 272.05 C 482.23 296.56 457.40 321.10 432.52 345.58 C 427.12 351.09 417.52 351.28 411.89 346.01 C 405.71 340.61 405.41 330.11 411.33 324.39 C 432.76 303.21 454.22 282.07 475.66 260.89 C 454.29 239.75 432.87 218.66 411.48 197.53 C 407.03 193.21 405.70 186.04 408.45 180.45 Z" />
</g>
</svg>
