<?xml version="1.0" encoding="UTF-8" ?>
<!DOCTYPE svg PUBLIC "-//W3C//DTD SVG 1.1//EN" "http://www.w3.org/Graphics/SVG/1.1/DTD/svg11.dtd">
<svg width="512pt" height="512pt" viewBox="0 0 512 512" version="1.1" xmlns="http://www.w3.org/2000/svg">
<g id="#000000ff">
<path fill="#000000" opacity="1.00" d=" M 252.40 0.00 L 259.58 0.00 C 296.67 0.68 333.61 10.64 365.71 29.30 C 417.65 58.98 456.45 110.71 469.99 169.02 C 480.71 213.98 476.90 262.33 458.93 304.94 C 444.83 338.69 422.09 368.77 393.55 391.63 C 369.47 411.11 341.13 425.02 311.30 433.11 C 295.02 455.94 279.12 479.07 262.99 502.01 C 260.81 505.33 258.13 508.35 256.48 512.00 L 255.52 512.00 C 254.42 509.43 252.68 507.24 251.09 504.97 C 234.64 481.42 218.15 457.89 201.72 434.33 C 201.02 432.89 199.43 432.55 198.05 432.16 C 154.47 420.44 114.89 394.67 86.25 359.84 C 63.47 332.30 47.55 299.12 40.47 264.09 C 32.70 225.88 35.18 185.60 47.86 148.72 C 66.96 92.16 110.33 44.40 164.74 19.84 C 192.15 7.20 222.24 0.63 252.40 0.00 Z" />
</g>
</svg>
