<?xml version="1.0" encoding="UTF-8" ?>
<!DOCTYPE svg PUBLIC "-//W3C//DTD SVG 1.1//EN" "http://www.w3.org/Graphics/SVG/1.1/DTD/svg11.dtd">
<svg width="512pt" height="512pt" viewBox="0 0 512 512" version="1.1" xmlns="http://www.w3.org/2000/svg">
<g id="#000000ff">
<path fill="#000000" opacity="1.00" d=" M 77.52 0.00 L 78.25 0.00 C 83.53 0.40 88.39 4.54 88.83 9.95 C 89.48 14.25 86.88 18.05 83.93 20.88 C 75.96 28.73 68.14 36.74 60.12 44.55 C 95.41 44.45 130.71 44.48 166.01 44.53 C 172.75 44.04 179.01 50.33 177.84 57.12 C 177.24 62.82 171.72 66.97 166.13 66.75 C 130.84 66.83 95.55 66.78 60.26 66.76 C 68.27 74.76 76.27 82.77 84.28 90.76 C 87.02 93.45 89.36 97.05 88.86 101.07 C 88.51 106.95 82.79 111.80 76.93 111.11 C 72.55 110.85 69.41 107.45 66.52 104.55 C 52.86 90.85 39.18 77.18 25.47 63.54 C 21.31 59.45 21.10 52.28 25.21 48.08 C 39.65 33.60 54.15 19.15 68.60 4.67 C 70.98 2.19 74.06 0.38 77.52 0.00 Z" />
<path fill="#000000" opacity="1.00" d=" M 411.51 0.00 L 412.20 0.00 C 415.71 0.36 418.81 2.23 421.22 4.73 C 435.56 19.10 449.90 33.46 464.28 47.78 C 468.56 51.91 468.59 59.33 464.32 63.48 C 450.00 77.77 435.68 92.06 421.39 106.38 C 419.09 108.62 416.40 110.82 413.06 111.09 C 407.12 111.90 401.15 107.07 400.85 101.06 C 400.34 96.95 402.80 93.34 405.61 90.62 C 413.59 82.68 421.52 74.70 429.51 66.76 C 395.01 66.83 360.51 66.74 326.01 66.81 C 322.50 66.82 318.63 66.58 315.85 64.16 C 311.93 61.10 310.68 55.29 312.87 50.85 C 314.83 46.66 319.43 44.36 323.96 44.52 C 359.18 44.49 394.40 44.46 429.62 44.54 C 421.98 37.13 414.57 29.50 406.98 22.04 C 404.86 19.91 402.58 17.73 401.49 14.87 C 398.76 8.05 404.35 0.30 411.51 0.00 Z" />
<path fill="#000000" opacity="1.00" d=" M 229.82 69.56 C 241.22 65.38 254.33 66.22 265.10 71.80 C 275.84 77.25 284.17 87.27 287.48 98.86 C 289.09 104.06 289.33 109.57 289.42 114.98 C 289.39 137.99 289.42 161.01 289.40 184.03 C 299.19 178.57 310.95 176.64 321.88 179.36 C 336.46 182.63 348.63 193.87 353.69 207.84 C 364.28 200.91 377.78 198.55 390.02 201.97 C 403.99 205.60 415.57 216.57 420.46 230.10 C 433.40 221.51 450.77 220.26 464.69 227.24 C 477.43 233.40 486.86 245.96 489.02 259.96 C 490.06 266.94 489.70 274.00 489.75 281.03 C 489.75 313.02 489.75 345.01 489.75 377.01 C 489.77 387.68 489.89 398.43 488.09 408.98 C 482.69 444.11 460.86 476.20 430.34 494.35 C 412.10 505.57 390.82 511.38 369.47 512.00 L 313.52 512.00 C 293.56 511.51 273.68 505.32 257.43 493.63 C 248.46 487.38 241.01 479.32 233.29 471.66 C 184.80 423.17 136.33 374.67 87.83 326.19 C 85.00 323.30 82.26 320.25 80.30 316.70 C 73.72 305.18 75.00 289.74 83.54 279.55 C 94.74 266.68 111.98 259.41 129.01 260.19 C 140.95 260.48 152.52 264.90 162.12 271.90 C 174.91 281.35 187.56 290.98 200.33 300.47 C 200.36 238.32 200.33 176.17 200.34 114.02 C 200.43 108.01 200.98 101.93 203.10 96.27 C 207.47 83.99 217.53 73.89 229.82 69.56 M 240.42 89.53 C 233.25 91.00 226.91 96.21 224.26 103.07 C 222.28 107.78 222.65 113.00 222.62 118.00 C 222.64 185.68 222.62 253.37 222.63 321.06 C 222.78 324.67 221.74 328.48 218.94 330.94 C 215.11 334.61 208.72 334.73 204.58 331.48 C 187.76 318.95 171.02 306.32 154.23 293.75 C 149.39 290.09 144.54 286.21 138.71 284.26 C 127.00 280.14 113.22 282.64 103.78 290.71 C 101.11 292.78 98.83 295.65 98.47 299.11 C 97.84 303.02 99.85 306.77 102.57 309.44 C 154.91 361.77 207.22 414.12 259.57 466.42 C 273.07 480.12 291.68 488.70 310.94 489.57 C 321.62 489.95 332.31 489.66 342.99 489.75 C 360.01 489.55 377.42 490.94 393.97 486.03 C 414.74 480.33 433.53 467.69 446.61 450.57 C 458.70 434.97 465.99 415.69 467.18 395.98 C 467.68 388.36 467.44 380.72 467.50 373.09 C 467.51 339.07 467.48 305.04 467.51 271.02 C 467.59 266.27 467.29 261.32 465.01 257.05 C 461.16 249.35 452.56 244.35 443.96 244.98 C 435.35 245.32 427.40 251.28 424.44 259.34 C 421.71 266.27 423.89 273.88 422.46 281.02 C 421.24 286.43 415.37 290.18 409.95 289.05 C 404.64 288.34 400.68 283.22 400.78 277.94 C 400.52 266.40 400.95 254.84 400.58 243.30 C 400.02 232.58 390.72 223.23 379.98 222.73 C 368.43 221.62 357.26 231.05 356.38 242.60 C 355.83 254.72 356.54 266.87 356.02 278.98 C 355.81 285.36 349.18 290.49 342.95 289.01 C 337.76 288.18 333.89 283.16 333.98 277.96 C 333.80 261.97 333.96 245.96 333.91 229.96 C 333.86 224.65 334.34 219.09 332.15 214.10 C 328.82 205.75 319.98 200.02 310.99 200.42 C 302.45 200.58 294.30 206.19 291.15 214.14 C 288.98 219.10 289.45 224.63 289.41 229.90 C 289.36 245.91 289.50 261.93 289.34 277.94 C 289.62 284.80 282.66 290.71 275.95 288.98 C 270.46 287.99 266.88 282.47 267.14 277.09 C 267.08 222.06 267.15 167.04 267.11 112.02 C 267.24 105.23 264.28 98.39 258.94 94.13 C 253.87 89.91 246.88 88.20 240.42 89.53 Z" />
</g>
</svg>
