<?xml version="1.0" encoding="UTF-8" ?>
<!DOCTYPE svg PUBLIC "-//W3C//DTD SVG 1.1//EN" "http://www.w3.org/Graphics/SVG/1.1/DTD/svg11.dtd">
<svg width="512pt" height="512pt" viewBox="0 0 512 512" version="1.1" xmlns="http://www.w3.org/2000/svg">
<g id="#000000ff">
<path fill="#000000" opacity="1.00" d=" M 248.42 0.00 L 262.61 0.00 C 304.30 1.21 345.78 12.37 382.00 33.15 C 429.86 60.14 468.62 102.99 490.54 153.38 C 503.84 183.26 510.77 215.77 512.00 248.40 L 512.00 263.53 C 510.56 304.63 499.62 345.49 479.23 381.27 C 460.51 414.68 434.14 443.75 402.78 465.71 C 362.00 494.58 312.55 510.64 262.65 512.00 L 249.39 512.00 C 203.83 510.69 158.59 497.32 120.06 472.88 C 74.80 444.59 38.80 401.78 18.75 352.32 C 7.20 324.17 1.12 293.92 0.00 263.55 L 0.00 248.46 C 0.99 222.71 5.40 197.04 13.86 172.67 C 32.35 118.67 69.59 71.36 117.68 40.64 C 156.42 15.36 202.25 1.55 248.42 0.00 M 219.78 132.76 C 194.44 140.14 171.62 155.67 155.26 176.36 C 137.80 198.26 127.87 226.03 127.56 254.04 C 127.01 279.31 134.43 304.51 148.03 325.76 C 141.45 340.00 135.03 354.32 128.54 368.60 C 126.12 373.58 128.16 380.10 132.96 382.83 C 136.22 384.95 140.30 384.61 143.90 383.71 C 161.21 379.81 178.08 374.21 195.17 369.45 C 196.78 369.67 198.15 370.72 199.63 371.37 C 222.14 382.48 247.98 386.65 272.86 383.34 C 298.99 379.96 323.91 368.18 343.20 350.24 C 364.21 330.88 378.51 304.34 382.87 276.08 C 387.62 246.59 381.64 215.51 366.14 189.96 C 351.00 164.65 326.91 144.82 299.09 134.97 C 273.78 125.87 245.56 125.13 219.78 132.76 Z" />
<path fill="#000000" opacity="1.00" d=" M 183.54 178.67 C 202.64 160.63 228.65 150.11 254.95 149.99 C 279.50 149.64 304.04 158.25 322.99 173.88 C 344.98 191.70 359.34 218.62 361.62 246.86 C 363.95 272.59 356.36 299.05 340.74 319.63 C 325.14 340.50 301.62 355.31 275.99 360.12 C 251.97 364.77 226.37 360.77 204.99 348.87 C 202.52 347.52 199.94 346.03 197.03 346.10 C 193.89 346.20 190.94 347.37 187.93 348.14 C 178.24 350.75 168.59 353.53 158.88 356.08 C 162.94 346.99 167.15 337.97 171.17 328.86 C 172.85 325.14 172.10 320.66 169.64 317.47 C 155.05 297.25 148.13 271.74 150.37 246.92 C 152.46 221.09 164.58 196.30 183.54 178.67 M 212.42 197.54 C 207.77 198.38 204.11 201.70 200.97 205.03 C 195.03 211.40 192.43 220.41 193.33 229.00 C 194.54 241.33 200.65 252.55 207.72 262.48 C 219.18 278.17 234.03 291.28 250.59 301.37 C 262.02 308.15 274.57 313.73 287.94 314.94 C 296.85 315.74 306.58 313.51 312.86 306.77 C 316.81 302.41 320.04 296.92 320.38 290.93 C 320.74 285.75 316.33 282.19 312.64 279.35 C 306.00 274.70 298.33 270.71 290.08 270.41 C 284.18 270.33 281.09 276.08 278.34 280.40 C 276.59 282.95 274.80 287.09 270.99 286.23 C 253.40 280.02 238.37 267.35 228.50 251.59 C 227.01 249.42 224.98 246.49 226.87 243.93 C 230.35 239.00 235.75 234.52 235.68 227.96 C 235.37 219.85 232.12 211.97 227.43 205.42 C 223.98 200.79 218.57 196.42 212.42 197.54 Z" />
</g>
</svg>
